<?xml version="1.0" encoding="utf-8"?>
<!-- Generator: Adobe Illustrator 19.0.1, SVG Export Plug-In . SVG Version: 6.00 Build 0)  -->
<svg version="1.1" id="Flow_tree" xmlns="http://www.w3.org/2000/svg" xmlns:xlink="http://www.w3.org/1999/xlink" x="0px" y="0px"
	 viewBox="-389 391 20 20" style="enable-background:new -389 391 20 20;" xml:space="preserve">
<style type="text/css">
	.st0{fill:#FFFFFF;stroke:#603913;stroke-width:0.25;stroke-miterlimit:10;}
</style>
<path class="st0" d="M-371,405.8v-2.3c0-1.9-1.6-3.5-3.5-3.5h-2c-0.8,0-1.5-0.7-1.5-1.5v-2.3c0.8-0.4,1.4-1.2,1.4-2.2
	c0-1.3-1.1-2.4-2.4-2.4c-1.3,0-2.4,1.1-2.4,2.4c0,1,0.6,1.8,1.4,2.2v2.3c0,0.8-0.7,1.5-1.5,1.5h-2c-1.9,0-3.5,1.6-3.5,3.5v2.3
	c-0.8,0.4-1.4,1.2-1.4,2.2c0,1.3,1.1,2.4,2.4,2.4c1.3,0,2.4-1.1,2.4-2.4c0-1-0.6-1.8-1.4-2.2v-2.3c0-0.8,0.7-1.5,1.5-1.5h2
	c0.5,0,1-0.1,1.5-0.4v4.2c-0.8,0.4-1.4,1.2-1.4,2.2c0,1.3,1.1,2.4,2.4,2.4c1.3,0,2.4-1.1,2.4-2.4c0-1-0.6-1.8-1.4-2.2v-4.2
	c0.5,0.2,1,0.4,1.5,0.4h2c0.8,0,1.5,0.7,1.5,1.5v2.3c-0.8,0.4-1.4,1.2-1.4,2.2c0,1.3,1.1,2.4,2.4,2.4c1.3,0,2.4-1.1,2.4-2.4
	C-369.6,407-370.2,406.2-371,405.8z M-379,392.6c0.8,0,1.4,0.6,1.4,1.4c0,0.8-0.6,1.4-1.4,1.4c-0.8,0-1.4-0.6-1.4-1.4
	C-380.4,393.2-379.8,392.6-379,392.6z M-386,409.4c-0.8,0-1.4-0.6-1.4-1.4c0-0.8,0.6-1.4,1.4-1.4c0.8,0,1.4,0.6,1.4,1.4
	C-384.6,408.8-385.2,409.4-386,409.4z M-379,409.4c-0.8,0-1.4-0.6-1.4-1.4c0-0.8,0.6-1.4,1.4-1.4c0.8,0,1.4,0.6,1.4,1.4
	C-377.6,408.8-378.2,409.4-379,409.4z M-372,409.4c-0.8,0-1.4-0.6-1.4-1.4c0-0.8,0.6-1.4,1.4-1.4c0.8,0,1.4,0.6,1.4,1.4
	C-370.6,408.8-371.2,409.4-372,409.4z"/>
</svg>
